<?xml version="1.0" encoding="UTF-8"?>
<!DOCTYPE svg PUBLIC "-//W3C//DTD SVG 1.1//EN" "http://www.w3.org/Graphics/SVG/1.1/DTD/svg11.dtd">
<svg xmlns="http://www.w3.org/2000/svg" version="1.1" width="906px" height="286px" style="shape-rendering:geometricPrecision; text-rendering:geometricPrecision; image-rendering:optimizeQuality; fill-rule:evenodd; clip-rule:evenodd" xmlns:xlink="http://www.w3.org/1999/xlink">
<g><path style="opacity:1" fill="#eceff1" d="M -0.5,-0.5 C 301.5,-0.5 603.5,-0.5 905.5,-0.5C 905.5,94.8333 905.5,190.167 905.5,285.5C 603.5,285.5 301.5,285.5 -0.5,285.5C -0.5,190.167 -0.5,94.8333 -0.5,-0.5 Z"/></g>
<g><path style="opacity:1" fill="#b7e1eb" d="M 92.5,42.5 C 91.3773,44.688 91.3773,47.0213 92.5,49.5C 90.9735,48.5081 90.3068,47.0081 90.5,45C 90.8333,43.8333 91.1667,42.6667 91.5,41.5C 92.1067,41.6236 92.44,41.9569 92.5,42.5 Z"/></g>
<g><path style="opacity:1" fill="#65cade" d="M 113.5,48.5 C 112.593,50.6568 111.927,52.9902 111.5,55.5C 111.5,55.8333 111.5,56.1667 111.5,56.5C 110.539,54.7354 110.205,52.7354 110.5,50.5C 111.12,46.736 112.12,43.0693 113.5,39.5C 114.643,42.4977 114.643,45.4977 113.5,48.5 Z"/></g>
<g><path style="opacity:1" fill="#72cde5" d="M 79.5,42.5 C 81.4109,42.5743 82.5776,43.5743 83,45.5C 84.1505,47.7538 84.4838,50.0871 84,52.5C 81.6346,49.5763 80.1346,46.243 79.5,42.5 Z"/></g>
<g><path style="opacity:1" fill="#6ecce3" d="M 101.5,40.5 C 102.809,42.5706 103.475,45.0706 103.5,48C 103.167,50.5 102.833,53 102.5,55.5C 101.506,50.544 101.173,45.544 101.5,40.5 Z"/></g>
<g><path style="opacity:1" fill="#70cee1" d="M 122.5,46.5 C 123.124,46.9169 123.457,47.5836 123.5,48.5C 122.423,54.1971 120.089,59.1971 116.5,63.5C 116.167,63.1667 115.833,62.8333 115.5,62.5C 117.349,56.9064 119.683,51.573 122.5,46.5 Z"/></g>
<g><path style="opacity:1" fill="#6dcce0" d="M 133.5,47.5 C 134.376,47.3691 135.043,47.7025 135.5,48.5C 134.244,52.0163 132.244,55.0163 129.5,57.5C 128.417,56.635 128.251,55.635 129,54.5C 131.009,52.478 132.509,50.1446 133.5,47.5 Z"/></g>
<g><path style="opacity:1" fill="#7cd1e4" d="M 92.5,42.5 C 95.1939,48.8456 96.3606,55.5123 96,62.5C 93.3538,58.6938 92.1871,54.3605 92.5,49.5C 91.3773,47.0213 91.3773,44.688 92.5,42.5 Z"/></g>
<g><path style="opacity:1" fill="#aadee9" d="M 110.5,50.5 C 110.205,52.7354 110.539,54.7354 111.5,56.5C 111.44,57.0431 111.107,57.3764 110.5,57.5C 109.203,55.0268 109.203,52.6934 110.5,50.5 Z"/></g>
<g><path style="opacity:1" fill="#b7e1ea" d="M 113.5,48.5 C 113.662,50.5273 113.495,52.5273 113,54.5C 112.617,55.056 112.117,55.3893 111.5,55.5C 111.927,52.9902 112.593,50.6568 113.5,48.5 Z"/></g>
<g><path style="opacity:1" fill="#63cae0" d="M 71.5,50.5 C 74.8064,52.8134 77.4731,55.8134 79.5,59.5C 80.9294,61.3313 81.4294,63.3313 81,65.5C 77.1877,60.8656 74.021,55.8656 71.5,50.5 Z"/></g>
<g><path style="opacity:1" fill="#6dcde1" d="M 139.5,57.5 C 141.942,57.1192 142.609,57.7859 141.5,59.5C 136.488,64.0123 131.655,68.679 127,73.5C 126.333,72.5 126.333,71.5 127,70.5C 131.37,66.2978 135.537,61.9645 139.5,57.5 Z"/></g>
<g><path style="opacity:1" fill="#61c9df" d="M 62.5,58.5 C 63.2506,57.4265 64.2506,57.2599 65.5,58C 67.8745,60.039 69.8745,62.3723 71.5,65C 70.8333,65.6667 70.1667,65.6667 69.5,65C 67.2968,62.6278 64.9635,60.4611 62.5,58.5 Z"/></g>
<g><path style="opacity:1" fill="#61c9e1" d="M 85.5,57.5 C 86.4959,57.4142 87.3292,57.7476 88,58.5C 89.1505,60.7538 89.4838,63.0871 89,65.5C 86.7658,63.2963 85.5991,60.6296 85.5,57.5 Z"/></g>
<g><path style="opacity:1" fill="#68cce1" d="M 124.5,61.5 C 125.497,61.4701 126.164,61.9701 126.5,63C 122.313,68.9912 121.646,68.4912 124.5,61.5 Z"/></g>
<g><path style="opacity:1" fill="#63cae0" d="M 54.5,64.5 C 57.3029,65.0665 59.6363,66.3998 61.5,68.5C 60.635,69.5827 59.635,69.7494 58.5,69C 56.3645,68.1237 55.0312,66.6237 54.5,64.5 Z"/></g>
<g><path style="opacity:1" fill="#66cbe1" d="M 138.5,74.5 C 137.209,74.7373 136.209,74.404 135.5,73.5C 139.525,70.647 143.692,67.9803 148,65.5C 149.563,66.1021 149.396,66.9354 147.5,68C 144.079,69.6985 141.079,71.8652 138.5,74.5 Z"/></g>
<g><path style="opacity:1" fill="#69cae3" d="M 85.5,69.5 C 85.6716,70.4916 85.3382,71.1583 84.5,71.5C 82.6815,70.0638 82.3482,68.3971 83.5,66.5C 84.4252,67.3569 85.0919,68.3569 85.5,69.5 Z"/></g>
<g><path style="opacity:1" fill="#51c4de" d="M 129.5,76.5 C 132.719,76.7759 135.385,78.1093 137.5,80.5C 143.123,86.3003 148.79,92.3003 154.5,98.5C 153.998,99.521 153.332,99.6877 152.5,99C 147.696,93.9304 142.029,91.0971 135.5,90.5C 134.781,92.5167 133.614,94.1834 132,95.5C 130.22,92.9139 128.22,90.5806 126,88.5C 122.585,89.2718 120.085,91.1051 118.5,94C 119.866,97.5418 122.199,100.375 125.5,102.5C 126.59,103.609 126.59,104.609 125.5,105.5C 122.648,102.14 119.148,99.8069 115,98.5C 113.333,99.5 111.667,100.5 110,101.5C 108.832,100.491 107.665,99.4911 106.5,98.5C 104.605,99.973 102.939,101.64 101.5,103.5C 100.534,100.872 98.8677,98.8718 96.5,97.5C 93.207,99.6212 90.0404,101.955 87,104.5C 86.5,104.333 86,104.167 85.5,104C 88.3067,100.844 90.9733,97.6769 93.5,94.5C 90.5115,87.8313 86.1782,86.498 80.5,90.5C 79.5,89.8333 78.5,89.1667 77.5,88.5C 76.5905,90.3747 75.2572,91.708 73.5,92.5C 72.962,90.8828 72.6287,89.2161 72.5,87.5C 68.8355,87.5018 65.8355,88.8352 63.5,91.5C 61.545,92.6151 59.7116,93.9485 58,95.5C 57.3333,94.5 57.3333,93.5 58,92.5C 64.2596,85.5674 71.093,79.4007 78.5,74C 77.3333,72.8333 76.1667,71.6667 75,70.5C 74.3123,69.6683 74.479,69.0016 75.5,68.5C 77.4829,69.982 79.3163,71.6487 81,73.5C 81.6838,74.7839 81.5171,75.9505 80.5,77C 81.1667,77.1667 81.8333,77.3333 82.5,77.5C 84.0411,76.7142 85.3744,75.7142 86.5,74.5C 87.9063,74.0269 88.573,73.0269 88.5,71.5C 92.9645,67.5368 97.2978,63.3702 101.5,59C 103.365,57.6986 105.365,57.3653 107.5,58C 113.134,64.6357 119.134,70.969 125.5,77C 127.066,77.765 128.399,77.5983 129.5,76.5 Z"/></g>
<g><path style="opacity:1" fill="#b8e1ea" d="M 85.5,69.5 C 86.5,70.1667 87.5,70.8333 88.5,71.5C 88.573,73.0269 87.9063,74.0269 86.5,74.5C 86.2178,73.2223 85.5511,72.2223 84.5,71.5C 85.3382,71.1583 85.6716,70.4916 85.5,69.5 Z"/></g>
<g><path style="opacity:1" fill="#e0ecf0" d="M 103.5,60.5 C 107.836,62.3209 111.503,65.1542 114.5,69C 113.584,69.3742 112.75,69.8742 112,70.5C 111.207,77.9896 109.374,77.9896 106.5,70.5C 105.675,69.6143 104.675,69.281 103.5,69.5C 102.768,72.0202 101.602,74.3536 100,76.5C 99.7537,73.1103 99.2537,69.777 98.5,66.5C 99.843,64.1634 101.51,62.1634 103.5,60.5 Z"/></g>
<g><path style="opacity:1" fill="#e3edf0" d="M 95.5,71.5 C 97.2571,74.4434 98.5904,77.7767 99.5,81.5C 101.342,79.1353 103.176,76.802 105,74.5C 107.071,75.7753 108.571,77.6086 109.5,80C 110.448,80.4828 111.448,80.6495 112.5,80.5C 111.828,77.0921 112.828,74.4255 115.5,72.5C 117.968,73.8029 120.301,75.3029 122.5,77C 123.574,77.7387 124.241,78.7387 124.5,80C 121.883,83.62 118.883,86.9533 115.5,90C 114.5,90.6667 113.5,90.6667 112.5,90C 110.933,87.4315 108.767,85.5982 106,84.5C 102.208,86.4073 99.0416,89.074 96.5,92.5C 93.4895,89.9885 90.6561,87.3218 88,84.5C 86.9242,82.9328 86.0909,81.2662 85.5,79.5C 87.727,75.394 91.0603,72.7274 95.5,71.5 Z"/></g>
<g><path style="opacity:1" fill="#67cbe1" d="M 64.5,70.5 C 66.6282,71.9573 68.9616,72.9573 71.5,73.5C 71.4347,76.9983 70.1014,77.4983 67.5,75C 65.8588,73.871 64.8588,72.371 64.5,70.5 Z"/></g>
<g><path style="opacity:1" fill="#33bbdb" d="M 181.5,73.5 C 183.474,78.3905 182.474,79.3905 178.5,76.5C 177.847,73.0382 176.513,69.8715 174.5,67C 174.833,66.5 175.167,66 175.5,65.5C 176.939,67.3603 178.605,69.027 180.5,70.5C 181.127,71.4168 181.461,72.4168 181.5,73.5 Z"/></g>
<g><path style="opacity:1" fill="#5fcae0" d="M 154.5,73.5 C 157.999,73.259 158.332,74.0924 155.5,76C 147.974,78.0265 147.641,77.1931 154.5,73.5 Z"/></g>
<g><path style="opacity:1" fill="#c7e5ed" d="M 135.5,73.5 C 136.209,74.404 137.209,74.7373 138.5,74.5C 137.602,75.1577 136.602,75.8243 135.5,76.5C 136.63,77.6223 137.297,78.9557 137.5,80.5C 135.385,78.1093 132.719,76.7759 129.5,76.5C 131.639,75.8419 133.639,74.8419 135.5,73.5 Z"/></g>
<g><path style="opacity:1" fill="#30bbd9" d="M 25.5,76.5 C 24.7784,76.9175 24.2784,77.5842 24,78.5C 23.5012,82.4862 23.3345,86.4862 23.5,90.5C 23.6716,91.4916 23.3382,92.1583 22.5,92.5C 22.593,86.1373 22.2597,79.8039 21.5,73.5C 23.0647,70.2616 25.398,67.595 28.5,65.5C 28.8333,66 29.1667,66.5 29.5,67C 27.4866,69.8715 26.1533,73.0382 25.5,76.5 Z"/></g>
<g><path style="opacity:1" fill="#71cee3" d="M 50.5,74.5 C 55.7343,75.9725 60.7343,78.1392 65.5,81C 59.33,81.2312 54.33,79.0646 50.5,74.5 Z"/></g>
<g><path style="opacity:1" fill="#d8eaef" d="M 75.5,77.5 C 79.0024,78.6556 82.0024,80.6556 84.5,83.5C 83.1667,84.5 81.8333,85.5 80.5,86.5C 79.4763,85.1468 78.143,84.4802 76.5,84.5C 76.7778,86.3464 76.1112,87.6798 74.5,88.5C 73.5713,87.3112 73.238,85.9778 73.5,84.5C 71.7741,84.8146 70.1075,84.9813 68.5,85C 71.0386,82.6303 73.3719,80.1303 75.5,77.5 Z"/></g>
<g><path style="opacity:1" fill="#7bd1e3" d="M 143.5,77.5 C 144.5,77.5 145.5,77.5 146.5,77.5C 146.5,78.5 146.5,79.5 146.5,80.5C 141.773,82.445 140.773,81.445 143.5,77.5 Z"/></g>
<g><path style="opacity:1" fill="#deebf0" d="M 129.5,79.5 C 133.678,80.1452 137.011,82.3119 139.5,86C 137.874,85.8047 136.207,85.8047 134.5,86C 133.624,87.586 132.624,89.086 131.5,90.5C 130.062,85.36 127.229,84.36 123,87.5C 122.833,87.1667 122.667,86.8333 122.5,86.5C 125.077,84.2844 127.41,81.951 129.5,79.5 Z"/></g>
<g><path style="opacity:1" fill="#9ddae7" d="M 25.5,76.5 C 25.1312,79.3189 24.7978,82.1523 24.5,85C 24.5687,86.9855 25.2353,88.4855 26.5,89.5C 25.8946,91.4812 24.8946,91.8146 23.5,90.5C 23.3345,86.4862 23.5012,82.4862 24,78.5C 24.2784,77.5842 24.7784,76.9175 25.5,76.5 Z"/></g>
<g><path style="opacity:1" fill="#7ad0e4" d="M 154.5,84.5 C 155.5,84.5 156.5,84.5 157.5,84.5C 157.5,85.5 157.5,86.5 157.5,87.5C 154.128,88.4015 150.795,88.4015 147.5,87.5C 149.621,85.9819 151.954,84.9819 154.5,84.5 Z"/></g>
<g><path style="opacity:1" fill="#6ecde3" d="M 48.5,86.5 C 52.193,85.0821 55.8596,85.4155 59.5,87.5C 55.6448,88.8922 51.9781,88.5588 48.5,86.5 Z"/></g>
<g><path style="opacity:1" fill="#7bd1e3" d="M 21.5,73.5 C 22.2597,79.8039 22.593,86.1373 22.5,92.5C 23.1098,93.391 23.4431,94.391 23.5,95.5C 22.9033,95.7352 22.5699,96.2352 22.5,97C 24.8003,101.414 26.8003,105.914 28.5,110.5C 27.1751,109.047 26.3418,109.381 26,111.5C 24.955,110.627 24.1217,109.627 23.5,108.5C 24.0431,108.44 24.3764,108.107 24.5,107.5C 19.6068,99.0384 17.9402,90.0384 19.5,80.5C 19.4095,77.8478 20.0762,75.5145 21.5,73.5 Z"/></g>
<g><path style="opacity:1" fill="#dfecf0" d="M 104.5,87.5 C 108.313,88.63 111.313,90.9633 113.5,94.5C 111.813,99.5558 109.813,99.5558 107.5,94.5C 106.675,93.6143 105.675,93.281 104.5,93.5C 104.803,96.5876 103.47,98.2542 100.5,98.5C 100.643,96.7376 100.309,95.0709 99.5,93.5C 101.19,91.4807 102.856,89.4807 104.5,87.5 Z"/></g>
<g><path style="opacity:1" fill="#e3edf0" d="M 135.5,143.5 C 136.117,143.389 136.617,143.056 137,142.5C 137.232,143.737 137.732,144.737 138.5,145.5C 138.735,146.097 139.235,146.43 140,146.5C 141.765,145.368 143.598,144.368 145.5,143.5C 154.906,138.38 160.073,130.38 161,119.5C 161.499,114.511 161.666,109.511 161.5,104.5C 161.833,104.5 162.167,104.5 162.5,104.5C 162.5,109.5 162.5,114.5 162.5,119.5C 162.18,122.898 162.513,126.232 163.5,129.5C 165.232,127.717 166.732,125.717 168,123.5C 171.462,115.129 172.796,106.463 172,97.5C 170.154,92.901 168.154,88.5677 166,84.5C 167.439,86.448 169.272,87.7814 171.5,88.5C 172.647,88.1822 173.481,87.5156 174,86.5C 175.11,90.1982 176.777,93.5315 179,96.5C 179.945,96.0946 180.612,95.428 181,94.5C 181.167,95 181.333,95.5 181.5,96C 178.725,102.83 176.059,109.663 173.5,116.5C 176.263,116.256 178.429,114.923 180,112.5C 181.667,109.833 183.333,107.167 185,104.5C 186.491,106.004 188.324,106.837 190.5,107C 185.709,109.627 181.709,113.127 178.5,117.5C 174.517,125.967 169.184,133.467 162.5,140C 154.085,145.625 145.585,151.125 137,156.5C 135.646,160.363 135.146,164.363 135.5,168.5C 128.329,167.65 122.662,164.317 118.5,158.5C 125.698,155.306 131.364,150.306 135.5,143.5 Z"/></g>
<g><path style="opacity:1" fill="#d3e9ee" d="M 19.5,80.5 C 17.9402,90.0384 19.6068,99.0384 24.5,107.5C 24.3764,108.107 24.0431,108.44 23.5,108.5C 20.2998,102.217 17.2998,95.8842 14.5,89.5C 15.7498,89.5774 16.5831,90.244 17,91.5C 17.3333,88.1667 17.6667,84.8333 18,81.5C 18.3826,80.944 18.8826,80.6107 19.5,80.5 Z"/></g>
<g><path style="opacity:1" fill="#d2e8ee" d="M 73.5,92.5 C 72.5084,92.3284 71.8417,92.6618 71.5,93.5C 70.1434,92.3146 68.6434,91.3146 67,90.5C 65.9889,91.0556 65.1556,91.7222 64.5,92.5C 64.5,91.8333 64.1667,91.5 63.5,91.5C 65.8355,88.8352 68.8355,87.5018 72.5,87.5C 72.6287,89.2161 72.962,90.8828 73.5,92.5 Z"/></g>
<g><path style="opacity:1" fill="#c5e5ec" d="M 639.5,94.5 C 638.512,116.091 638.178,137.758 638.5,159.5C 637.833,148.839 637.5,138.005 637.5,127C 637.501,115.812 638.168,104.979 639.5,94.5 Z"/></g>
<g><path style="opacity:1" fill="#3bbfdb" d="M 71.5,93.5 C 71.4431,94.609 71.1098,95.609 70.5,96.5C 69.9094,97.1515 69.2427,97.8182 68.5,98.5C 68.7093,99.086 69.0426,99.586 69.5,100C 68.2068,100.49 66.8734,100.657 65.5,100.5C 65.0965,97.8712 64.7632,95.2046 64.5,92.5C 65.1556,91.7222 65.9889,91.0556 67,90.5C 68.6434,91.3146 70.1434,92.3146 71.5,93.5 Z"/></g>
<g><path style="opacity:1" fill="#4bc4de" d="M 225.5,96.5 C 243.008,96.17 260.341,96.5033 277.5,97.5C 260.5,97.5 243.5,97.5 226.5,97.5C 226.5,100.167 226.5,102.833 226.5,105.5C 233.354,105.176 240.021,105.509 246.5,106.5C 239.5,106.5 232.5,106.5 225.5,106.5C 225.5,103.167 225.5,99.8333 225.5,96.5 Z"/></g>
<g><path style="opacity:1" fill="#49c3de" d="M 86.5,94.5 C 85.6502,96.73 84.6502,99.0633 83.5,101.5C 83.44,102.043 83.1067,102.376 82.5,102.5C 81.7492,101.624 81.2492,100.624 81,99.5C 80.6667,99.8333 80.3333,100.167 80,100.5C 80.0464,98.6874 79.8797,97.0207 79.5,95.5C 81.4202,91.9667 83.7535,91.6334 86.5,94.5 Z"/></g>
<g><path style="opacity:1" fill="#20b7d8" d="M 162.5,97.5 C 163.623,99.9787 163.623,102.312 162.5,104.5C 162.167,104.5 161.833,104.5 161.5,104.5C 160.797,102.371 159.797,100.371 158.5,98.5C 158.49,90.8494 159.823,90.516 162.5,97.5 Z"/></g>
<g><path style="opacity:1" fill="#51c4de" d="M 501.5,99.5 C 498.609,98.5975 495.609,98.2641 492.5,98.5C 492.448,100.903 492.781,103.236 493.5,105.5C 491.138,103.081 490.138,100.081 490.5,96.5C 493.85,96.335 497.183,96.5017 500.5,97C 501.252,97.6708 501.586,98.5041 501.5,99.5 Z"/></g>
<g><path style="opacity:1" fill="#56c5de" d="M 593.5,104.5 C 593.056,98.8473 590.056,97.0139 584.5,99C 583.321,101.796 583.321,104.629 584.5,107.5C 583.883,107.389 583.383,107.056 583,106.5C 580.964,97.7737 584.13,94.9404 592.5,98C 594.418,100.109 594.751,102.275 593.5,104.5 Z"/></g>
<g><path style="opacity:1" fill="#21b6d9" d="M 277.5,97.5 C 277.5,100.5 277.5,103.5 277.5,106.5C 270.833,106.5 264.167,106.5 257.5,106.5C 257.667,124.17 257.5,141.836 257,159.5C 253.399,160.82 249.899,160.82 246.5,159.5C 246.5,141.833 246.5,124.167 246.5,106.5C 240.021,105.509 233.354,105.176 226.5,105.5C 226.5,102.833 226.5,100.167 226.5,97.5C 243.5,97.5 260.5,97.5 277.5,97.5 Z"/></g>
<g><path style="opacity:1" fill="#22b6d8" d="M 540.5,108.5 C 540.41,111.152 541.076,113.485 542.5,115.5C 545.315,123.083 547.982,130.75 550.5,138.5C 551.635,136.293 552.301,133.96 552.5,131.5C 554.088,129.887 555.088,127.887 555.5,125.5C 558.009,116.146 560.842,106.812 564,97.5C 567.394,96.5442 570.894,96.2108 574.5,96.5C 574.435,99.4282 573.768,102.095 572.5,104.5C 571.076,106.515 570.41,108.848 570.5,111.5C 568.785,116.857 567.118,122.191 565.5,127.5C 563.759,129.395 562.759,131.728 562.5,134.5C 560.166,141.838 557.833,149.171 555.5,156.5C 553.104,158.951 550.104,159.951 546.5,159.5C 542.204,147.357 538.538,135.023 535.5,122.5C 535.553,118.862 533.887,116.862 530.5,116.5C 530.5,118.5 530.5,120.5 530.5,122.5C 526.603,134.825 522.769,147.159 519,159.5C 511.216,161.898 507.716,158.898 508.5,150.5C 508.379,147.895 507.379,145.895 505.5,144.5C 501.037,131.651 497.037,118.651 493.5,105.5C 492.781,103.236 492.448,100.903 492.5,98.5C 495.609,98.2641 498.609,98.5975 501.5,99.5C 504.575,107.723 507.241,116.057 509.5,124.5C 509.927,127.01 510.593,129.343 511.5,131.5C 512.338,131.842 512.672,132.508 512.5,133.5C 512.857,135.589 513.523,137.589 514.5,139.5C 515.919,138.995 516.585,137.995 516.5,136.5C 520.19,123.075 524.19,109.742 528.5,96.5C 531.167,96.5 533.833,96.5 536.5,96.5C 537.27,100.703 538.604,104.703 540.5,108.5 Z"/></g>
<g><path style="opacity:1" fill="#17b5d7" d="M 744.5,99.5 C 746.82,97.7739 749.487,97.1072 752.5,97.5C 752.5,118.167 752.5,138.833 752.5,159.5C 749.5,159.5 746.5,159.5 743.5,159.5C 743.832,146.483 743.499,133.483 742.5,120.5C 741.478,120.855 740.811,121.522 740.5,122.5C 740.5,123.167 740.5,123.833 740.5,124.5C 735.286,131.235 730.786,138.569 727,146.5C 722.22,148.365 718.22,147.365 715,143.5C 711.063,135.949 706.896,128.616 702.5,121.5C 702.44,120.957 702.107,120.624 701.5,120.5C 700.501,133.483 700.168,146.483 700.5,159.5C 697.167,159.5 693.833,159.5 690.5,159.5C 690.5,138.5 690.5,117.5 690.5,96.5C 693.247,96.1866 695.914,96.52 698.5,97.5C 706.531,110.034 714.365,122.701 722,135.5C 729.249,123.333 736.749,111.333 744.5,99.5 Z"/></g>
<g><path style="opacity:1" fill="#24b7d8" d="M 798.5,103.5 C 798.755,105.967 799.755,107.967 801.5,109.5C 807.035,122.776 812.368,136.109 817.5,149.5C 817.755,151.967 818.755,153.967 820.5,155.5C 821.038,157.117 821.371,158.784 821.5,160.5C 817.818,160.665 814.152,160.499 810.5,160C 809.387,156.106 807.72,152.439 805.5,149C 796.506,148.5 787.506,148.334 778.5,148.5C 777.833,148.833 777.167,149.167 776.5,149.5C 776.44,148.957 776.107,148.624 775.5,148.5C 772.47,149.169 769.47,149.835 766.5,150.5C 769.634,141.766 772.967,133.099 776.5,124.5C 778.245,122.967 779.245,120.967 779.5,118.5C 782.169,111.152 784.835,103.818 787.5,96.5C 794.056,94.7177 797.723,97.0511 798.5,103.5 Z"/></g>
<g><path style="opacity:1" fill="#80d2e5" d="M 858.5,96.5 C 860.967,96.7549 862.967,97.7549 864.5,99.5C 861.895,99.3794 859.895,98.3794 858.5,96.5 Z"/></g>
<g><path style="opacity:1" fill="#96d9e8" d="M 86.5,94.5 C 87.0716,96.1188 87.4049,97.7855 87.5,99.5C 86.2342,100.362 84.9008,101.029 83.5,101.5C 84.6502,99.0633 85.6502,96.73 86.5,94.5 Z"/></g>
<g><path style="opacity:1" fill="#c8e6ed" d="M 168.5,97.5 C 169.164,99.8097 169.497,102.31 169.5,105C 169.606,109.427 168.94,113.594 167.5,117.5C 168.139,110.852 168.473,104.186 168.5,97.5 Z"/></g>
<g><path style="opacity:1" fill="#16b3d7" d="M 593.5,104.5 C 593.489,106.017 592.823,107.184 591.5,108C 588.961,108.796 586.628,108.629 584.5,107.5C 583.321,104.629 583.321,101.796 584.5,99C 590.056,97.0139 593.056,98.8473 593.5,104.5 Z"/></g>
<g><path style="opacity:1" fill="#80d2e4" d="M 64.5,92.5 C 64.7632,95.2046 65.0965,97.8712 65.5,100.5C 66.8734,100.657 68.2068,100.49 69.5,100C 69.0426,99.586 68.7093,99.086 68.5,98.5C 69.2427,97.8182 69.9094,97.1515 70.5,96.5C 71.0967,96.7352 71.4301,97.2352 71.5,98C 70.2311,100.084 69.2311,102.251 68.5,104.5C 66.289,104.033 64.289,103.033 62.5,101.5C 62.5,99.1667 62.5,96.8333 62.5,94.5C 62.8555,93.4777 63.5222,92.811 64.5,92.5 Z"/></g>
<g><path style="opacity:1" fill="#5dcae0" d="M 743.5,159.5 C 746.5,159.5 749.5,159.5 752.5,159.5C 752.5,138.833 752.5,118.167 752.5,97.5C 749.487,97.1072 746.82,97.7739 744.5,99.5C 744.414,98.5041 744.748,97.6708 745.5,97C 748.146,96.5026 750.813,96.3359 753.5,96.5C 753.5,117.833 753.5,139.167 753.5,160.5C 749.958,160.813 746.625,160.479 743.5,159.5 Z"/></g>
<g><path style="opacity:1" fill="#bbe2eb" d="M 191.5,95.5 C 191.326,97.861 190.993,100.194 190.5,102.5C 192.735,102.205 194.735,102.539 196.5,103.5C 194.167,103.5 191.833,103.5 189.5,103.5C 189.111,100.447 189.777,97.78 191.5,95.5 Z"/></g>
<g><path style="opacity:1" fill="#17b4da" d="M 858.5,96.5 C 859.895,98.3794 861.895,99.3794 864.5,99.5C 867.089,100.419 869.089,102.086 870.5,104.5C 868.684,106.817 866.684,108.984 864.5,111C 861.65,109.575 858.65,108.075 855.5,106.5C 852.36,105.359 849.027,105.192 845.5,106C 844.944,106.383 844.611,106.883 844.5,107.5C 843.542,107.953 842.708,108.619 842,109.5C 841.503,111.81 841.337,114.143 841.5,116.5C 841.414,117.496 841.748,118.329 842.5,119C 840.427,119.118 839.093,120.118 838.5,122C 839.148,123.44 839.481,124.94 839.5,126.5C 838.5,126.5 837.5,126.5 836.5,126.5C 834.051,125.06 832.385,123.06 831.5,120.5C 831.274,115.438 831.608,110.438 832.5,105.5C 833.95,102.215 836.283,99.7155 839.5,98C 845.742,96.6304 852.075,96.1304 858.5,96.5 Z"/></g>
<g><path style="opacity:1" fill="#8dd5e7" d="M 855.5,106.5 C 851.766,106.323 848.099,106.656 844.5,107.5C 844.611,106.883 844.944,106.383 845.5,106C 849.027,105.192 852.36,105.359 855.5,106.5 Z"/></g>
<g><path style="opacity:1" fill="#49c4de" d="M 96.5,109.5 C 94.9652,110.788 93.2985,110.788 91.5,109.5C 91.7093,108.914 92.0426,108.414 92.5,108C 91.244,107.583 90.5774,106.75 90.5,105.5C 93.372,102.653 95.7053,103.153 97.5,107C 97.2568,107.902 96.9234,108.735 96.5,109.5 Z"/></g>
<g><path style="opacity:1" fill="#74cfe3" d="M 621.5,116.5 C 620.511,111.025 620.178,105.358 620.5,99.5C 617.5,99.5 614.5,99.5 611.5,99.5C 611.822,105.358 611.489,111.025 610.5,116.5C 610.5,110.167 610.5,103.833 610.5,97.5C 614.106,97.2108 617.606,97.5442 621,98.5C 621.499,104.491 621.666,110.491 621.5,116.5 Z"/></g>
<g><path style="opacity:1" fill="#59c7df" d="M 55.5,111.5 C 54.6842,109.105 53.6842,106.771 52.5,104.5C 55.1269,99.1932 57.7936,99.1932 60.5,104.5C 59.5254,107.469 57.8587,109.802 55.5,111.5 Z"/></g>
<g><path style="opacity:1" fill="#56c6de" d="M 115.5,101.5 C 118.012,101.423 120.012,102.423 121.5,104.5C 120.494,107.01 119.161,109.344 117.5,111.5C 115.839,109.344 114.506,107.01 113.5,104.5C 114.193,103.482 114.859,102.482 115.5,101.5 Z"/></g>
<g><path style="opacity:1" fill="#b4e0ea" d="M 52.5,104.5 C 53.6842,106.771 54.6842,109.105 55.5,111.5C 54.2921,110.766 52.9587,110.433 51.5,110.5C 52.2922,108.279 52.6256,106.279 52.5,104.5 Z"/></g>
<g><path style="opacity:1" fill="#b6e1eb" d="M 225.5,96.5 C 225.5,99.8333 225.5,103.167 225.5,106.5C 232.5,106.5 239.5,106.5 246.5,106.5C 246.5,124.167 246.5,141.833 246.5,159.5C 245.503,142.341 245.17,125.008 245.5,107.5C 238.5,107.5 231.5,107.5 224.5,107.5C 224.185,103.629 224.518,99.9619 225.5,96.5 Z"/></g>
<g><path style="opacity:1" fill="#22b6d8" d="M 639.5,94.5 C 642.713,94.19 645.713,94.5233 648.5,95.5C 648.169,103.86 648.502,112.193 649.5,120.5C 650.107,120.376 650.44,120.043 650.5,119.5C 650.833,119.5 651.167,119.5 651.5,119.5C 658.022,117.23 664.689,116.897 671.5,118.5C 675.424,120.752 677.757,124.085 678.5,128.5C 678.5,138.833 678.5,149.167 678.5,159.5C 675.5,159.5 672.5,159.5 669.5,159.5C 669.827,149.985 669.494,140.652 668.5,131.5C 667.833,128.833 666.167,127.167 663.5,126.5C 660.167,123.833 656.833,123.833 653.5,126.5C 652.199,127.64 651.032,128.973 650,130.5C 649.667,140.167 649.333,149.833 649,159.5C 645.501,160.797 642.001,160.797 638.5,159.5C 638.178,137.758 638.512,116.091 639.5,94.5 Z"/></g>
<g><path style="opacity:1" fill="#8ad6e7" d="M 648.5,95.5 C 649.167,103.5 649.833,111.5 650.5,119.5C 650.44,120.043 650.107,120.376 649.5,120.5C 648.502,112.193 648.169,103.86 648.5,95.5 Z"/></g>
<g><path style="opacity:1" fill="#8bd3e7" d="M 798.5,103.5 C 800.245,105.033 801.245,107.033 801.5,109.5C 799.755,107.967 798.755,105.967 798.5,103.5 Z"/></g>
<g><path style="opacity:1" fill="#61c8e0" d="M 104.5,107.5 C 107.104,107.598 109.104,108.765 110.5,111C 109.385,112.235 109.385,113.402 110.5,114.5C 109.975,115.192 109.308,115.692 108.5,116C 111.365,118.403 111.199,119.236 108,118.5C 107.612,119.428 106.945,120.095 106,120.5C 104.638,119.075 103.138,118.242 101.5,118C 101.905,117.055 102.572,116.388 103.5,116C 102.692,115.692 102.025,115.192 101.5,114.5C 102.615,113.402 102.615,112.235 101.5,111C 102.544,109.826 103.544,108.659 104.5,107.5 Z"/></g>
<g><path style="opacity:1" fill="#84d4e5" d="M 90.5,105.5 C 90.5774,106.75 91.244,107.583 92.5,108C 92.0426,108.414 91.7093,108.914 91.5,109.5C 93.2985,110.788 94.9652,110.788 96.5,109.5C 97.0431,109.56 97.3764,109.893 97.5,110.5C 96.1468,111.524 95.4802,112.857 95.5,114.5C 94.5,114.5 93.5,114.5 92.5,114.5C 92.8808,112.058 92.2141,111.391 90.5,112.5C 90.1667,112 89.8333,111.5 89.5,111C 89.6872,109.109 90.0205,107.275 90.5,105.5 Z"/></g>
<g><path style="opacity:1" fill="#6dcde1" d="M 162.5,97.5 C 163.117,97.6107 163.617,97.944 164,98.5C 164.719,102.145 165.219,105.812 165.5,109.5C 164.5,112.833 163.5,116.167 162.5,119.5C 162.5,114.5 162.5,109.5 162.5,104.5C 163.623,102.312 163.623,99.9787 162.5,97.5 Z"/></g>
<g><path style="opacity:1" fill="#b5e0ec" d="M 572.5,104.5 C 572.662,106.527 572.495,108.527 572,110.5C 571.617,111.056 571.117,111.389 570.5,111.5C 570.41,108.848 571.076,106.515 572.5,104.5 Z"/></g>
<g><path style="opacity:1" fill="#96d9e8" d="M 540.5,108.5 C 541.924,110.515 542.59,112.848 542.5,115.5C 541.076,113.485 540.41,111.152 540.5,108.5 Z"/></g>
<g><path style="opacity:1" fill="#07b3d8" d="M 621.5,116.5 C 624.287,117.477 627.287,117.81 630.5,117.5C 630.808,119.924 630.474,122.257 629.5,124.5C 626.689,125.08 624.023,125.746 621.5,126.5C 620.505,137.321 620.172,148.321 620.5,159.5C 617.5,159.5 614.5,159.5 611.5,159.5C 611.828,148.321 611.495,137.321 610.5,126.5C 607.713,125.523 604.713,125.19 601.5,125.5C 601.5,122.833 601.5,120.167 601.5,117.5C 604.713,117.81 607.713,117.477 610.5,116.5C 611.489,111.025 611.822,105.358 611.5,99.5C 614.5,99.5 617.5,99.5 620.5,99.5C 620.178,105.358 620.511,111.025 621.5,116.5 Z"/></g>
<g><path style="opacity:1" fill="#6ccde4" d="M 832.5,105.5 C 831.608,110.438 831.274,115.438 831.5,120.5C 830.352,116.019 830.185,111.352 831,106.5C 831.383,105.944 831.883,105.611 832.5,105.5 Z"/></g>
<g><path style="opacity:1" fill="#7dd1e4" d="M 58.5,112.5 C 61.5184,112.335 64.5184,112.502 67.5,113C 67.9574,113.414 68.2907,113.914 68.5,114.5C 65.2317,115.487 61.8984,115.82 58.5,115.5C 58.5,114.5 58.5,113.5 58.5,112.5 Z"/></g>
<g><path style="opacity:1" fill="#48c2dc" d="M 459.5,123.5 C 457.97,124.067 456.47,124.733 455,125.5C 453.286,123.031 452.453,120.531 452.5,118C 445.785,117.289 439.118,117.622 432.5,119C 431.211,120.802 429.544,121.969 427.5,122.5C 431.5,117.487 436.833,115.154 443.5,115.5C 446.849,115.892 450.183,116.392 453.5,117C 456.15,118.595 458.15,120.762 459.5,123.5 Z"/></g>
<g><path style="opacity:1" fill="#62cae1" d="M 610.5,116.5 C 607.713,117.477 604.713,117.81 601.5,117.5C 601.5,120.167 601.5,122.833 601.5,125.5C 604.713,125.19 607.713,125.523 610.5,126.5C 607.167,126.5 603.833,126.5 600.5,126.5C 600.5,123.167 600.5,119.833 600.5,116.5C 603.833,116.5 607.167,116.5 610.5,116.5 Z"/></g>
<g><path style="opacity:1" fill="#48c1de" d="M 671.5,118.5 C 664.689,116.897 658.022,117.23 651.5,119.5C 651.577,118.25 652.244,117.417 653.5,117C 659.861,114.716 665.861,115.216 671.5,118.5 Z"/></g>
<g><path style="opacity:1" fill="#57c6e0" d="M 157.5,117.5 C 155.429,118.809 152.929,119.475 150,119.5C 138.123,119.353 126.623,118.353 115.5,116.5C 118.187,116.664 120.854,116.497 123.5,116C 127.423,110.986 130.423,105.486 132.5,99.5C 137.95,98.9101 143.284,99.7435 148.5,102C 148.732,107.694 150.732,112.694 154.5,117C 155.448,117.483 156.448,117.649 157.5,117.5 Z"/></g>
<g><path style="opacity:1" fill="#c9e6ed" d="M 130.5,108.5 C 131.468,110.607 131.802,112.941 131.5,115.5C 130.5,115.5 129.5,115.5 128.5,115.5C 129.167,113.167 129.833,110.833 130.5,108.5 Z"/></g>
<g><path style="opacity:1" fill="#cae6ed" d="M 133.5,107.5 C 135.397,109.698 136.397,112.364 136.5,115.5C 135.5,115.5 134.5,115.5 133.5,115.5C 133.5,112.833 133.5,110.167 133.5,107.5 Z"/></g>
<g><path style="opacity:1" fill="#e5edf1" d="M 141.5,102.5 C 143.042,103.301 144.708,103.634 146.5,103.5C 146.828,107.816 148.161,111.816 150.5,115.5C 141.762,118.114 137.095,114.781 136.5,105.5C 136.5,104.5 136.5,103.5 136.5,102.5C 138.167,102.5 139.833,102.5 141.5,102.5 Z"/></g>
<g><path style="opacity:1" fill="#afdfea" d="M 141.5,102.5 C 139.833,102.5 138.167,102.5 136.5,102.5C 136.5,103.5 136.5,104.5 136.5,105.5C 135.566,104.432 135.232,103.099 135.5,101.5C 137.735,101.205 139.735,101.539 141.5,102.5 Z"/></g>
<g><path style="opacity:1" fill="#18b4d8" d="M 333.5,117.5 C 336.5,117.5 339.5,117.5 342.5,117.5C 342.5,119.833 342.5,122.167 342.5,124.5C 340.152,124.592 338.486,125.592 337.5,127.5C 335.29,127.894 333.957,129.227 333.5,131.5C 332.003,133.29 331.336,135.456 331.5,138C 331.336,140.544 332.003,142.71 333.5,144.5C 338.246,152.232 344.579,153.565 352.5,148.5C 355.675,147.818 357.175,145.818 357,142.5C 357.395,136.746 357.062,131.08 356,125.5C 357.855,123.585 359.355,121.418 360.5,119C 360.167,118.667 359.833,118.333 359.5,118C 361.134,117.506 362.801,117.34 364.5,117.5C 364.98,120.685 364.314,123.519 362.5,126C 363,126.5 363.5,127 364,127.5C 364.5,138.161 364.667,148.828 364.5,159.5C 361.5,159.5 358.5,159.5 355.5,159.5C 355.649,158.448 355.483,157.448 355,156.5C 340.961,165.523 330.461,162.523 323.5,147.5C 322.212,141.153 322.212,134.82 323.5,128.5C 325.442,123.559 328.775,119.892 333.5,117.5 Z"/></g>
<g><path style="opacity:1" fill="#42bfd9" d="M 355.5,159.5 C 358.5,159.5 361.5,159.5 364.5,159.5C 364.667,148.828 364.5,138.161 364,127.5C 363.5,127 363,126.5 362.5,126C 364.314,123.519 364.98,120.685 364.5,117.5C 362.801,117.34 361.134,117.506 359.5,118C 359.833,118.333 360.167,118.667 360.5,119C 359.355,121.418 357.855,123.585 356,125.5C 357.062,131.08 357.395,136.746 357,142.5C 357.175,145.818 355.675,147.818 352.5,148.5C 355.362,143.236 356.195,137.57 355,131.5C 352.819,128.472 349.986,126.472 346.5,125.5C 345.432,124.566 344.099,124.232 342.5,124.5C 342.5,122.167 342.5,119.833 342.5,117.5C 339.5,117.5 336.5,117.5 333.5,117.5C 334.263,116.732 335.263,116.232 336.5,116C 343.523,114.354 349.689,115.854 355,120.5C 355.49,119.207 355.657,117.873 355.5,116.5C 359.167,116.5 362.833,116.5 366.5,116.5C 366.667,130.837 366.5,145.171 366,159.5C 362.399,160.82 358.899,160.82 355.5,159.5 Z"/></g>
<g><path style="opacity:1" fill="#24b7d6" d="M 399.5,134.5 C 400.117,134.389 400.617,134.056 401,133.5C 402.916,134.928 405.083,135.928 407.5,136.5C 406.754,137.736 406.421,139.07 406.5,140.5C 404.761,145.638 402.761,150.638 400.5,155.5C 399.094,155.973 398.427,156.973 398.5,158.5C 396.989,160.441 394.989,160.941 392.5,160C 390.069,155.532 387.736,151.032 385.5,146.5C 385.245,144.033 384.245,142.033 382.5,140.5C 379.171,132.507 375.837,124.507 372.5,116.5C 376.5,116.5 380.5,116.5 384.5,116.5C 386.943,125.261 390.443,133.594 395,141.5C 396.781,139.247 398.281,136.914 399.5,134.5 Z"/></g>
<g><path style="opacity:1" fill="#1fb5d9" d="M 412.5,128.5 C 411.265,128.721 410.265,129.388 409.5,130.5C 407.591,129.652 405.591,129.318 403.5,129.5C 403.517,127.435 403.85,125.435 404.5,123.5C 404.665,121.173 405.331,119.007 406.5,117C 410.211,116.175 413.878,116.341 417.5,117.5C 415.638,121.116 413.971,124.783 412.5,128.5 Z"/></g>
<g><path style="opacity:1" fill="#15b4d8" d="M 459.5,123.5 C 461.73,124.775 463.063,126.775 463.5,129.5C 463.5,133.167 463.5,136.833 463.5,140.5C 452.354,141.023 441.354,140.357 430.5,138.5C 429.44,144.125 431.44,147.792 436.5,149.5C 441.483,152.087 446.483,152.087 451.5,149.5C 452.799,147.901 454.465,147.401 456.5,148C 458.188,149.688 459.855,151.355 461.5,153C 458.663,157.257 454.663,159.757 449.5,160.5C 444.463,160.587 439.463,160.254 434.5,159.5C 427.926,155.932 423.592,150.598 421.5,143.5C 421.091,138.308 421.758,133.308 423.5,128.5C 423.845,125.802 425.178,123.802 427.5,122.5C 429.544,121.969 431.211,120.802 432.5,119C 439.118,117.622 445.785,117.289 452.5,118C 452.453,120.531 453.286,123.031 455,125.5C 456.47,124.733 457.97,124.067 459.5,123.5 Z"/></g>
<g><path style="opacity:1" fill="#a2dce9" d="M 482.5,159.5 C 482.831,137.993 482.497,116.66 481.5,95.5C 478.833,95.5 476.167,95.5 473.5,95.5C 472.503,116.66 472.169,137.993 472.5,159.5C 471.503,138.006 471.169,116.34 471.5,94.5C 475.5,94.5 479.5,94.5 483.5,94.5C 483.831,116.34 483.497,138.006 482.5,159.5 Z"/></g>
<g><path style="opacity:1" fill="#64cbe2" d="M 65.5,117.5 C 67.288,117.215 68.9547,117.548 70.5,118.5C 69.6667,118.833 68.8333,119.167 68,119.5C 66.6244,119.316 65.7911,118.649 65.5,117.5 Z"/></g>
<g><path style="opacity:1" fill="#15b5d8" d="M 308.5,126.5 C 307.688,125.007 306.355,124.34 304.5,124.5C 302.443,124.436 300.777,125.102 299.5,126.5C 298.306,127.272 297.306,128.272 296.5,129.5C 295.883,129.611 295.383,129.944 295,130.5C 294.5,140.161 294.334,149.828 294.5,159.5C 291.5,159.5 288.5,159.5 285.5,159.5C 285.5,145.167 285.5,130.833 285.5,116.5C 289.434,116.021 293.101,116.688 296.5,118.5C 302.987,114.622 309.487,114.622 316,118.5C 316.178,122.368 314.511,125.368 311,127.5C 310.098,127.257 309.265,126.923 308.5,126.5 Z"/></g>
<g><path style="opacity:1" fill="#67cbe1" d="M 535.5,122.5 C 534.15,121.517 533.15,120.184 532.5,118.5C 531.828,119.949 531.161,121.282 530.5,122.5C 530.5,120.5 530.5,118.5 530.5,116.5C 533.887,116.862 535.553,118.862 535.5,122.5 Z"/></g>
<g><path style="opacity:1" fill="#e7eef1" d="M 794.5,120.5 C 797.037,125.584 799.037,130.917 800.5,136.5C 794.833,137.833 789.167,137.833 783.5,136.5C 784.537,135.07 785.204,133.403 785.5,131.5C 785.557,130.391 785.89,129.391 786.5,128.5C 788.241,126.605 789.241,124.272 789.5,121.5C 789.833,120.167 790.167,118.833 790.5,117.5C 791.117,117.389 791.617,117.056 792,116.5C 792.2,118.32 793.034,119.653 794.5,120.5 Z"/></g>
<g><path style="opacity:1" fill="#dfecf0" d="M 115.5,116.5 C 126.623,118.353 138.123,119.353 150,119.5C 152.929,119.475 155.429,118.809 157.5,117.5C 157.833,117.5 158.167,117.5 158.5,117.5C 157.831,128.516 152.831,136.85 143.5,142.5C 142.624,142.631 141.957,142.298 141.5,141.5C 142.407,138.579 142.74,135.579 142.5,132.5C 143.483,128.702 143.817,124.702 143.5,120.5C 142.5,120.5 141.5,120.5 140.5,120.5C 132.016,119.507 123.349,119.174 114.5,119.5C 114.263,118.209 114.596,117.209 115.5,116.5 Z"/></g>
<g><path style="opacity:1" fill="#57c7e1" d="M 621.5,116.5 C 624.833,116.5 628.167,116.5 631.5,116.5C 631.5,119.833 631.5,123.167 631.5,126.5C 628.167,126.5 624.833,126.5 621.5,126.5C 624.023,125.746 626.689,125.08 629.5,124.5C 630.474,122.257 630.808,119.924 630.5,117.5C 627.287,117.81 624.287,117.477 621.5,116.5 Z"/></g>
<g><path style="opacity:1" fill="#b4e0eb" d="M 794.5,120.5 C 793.034,119.653 792.2,118.32 792,116.5C 791.617,117.056 791.117,117.389 790.5,117.5C 790.821,115.952 791.821,115.285 793.5,115.5C 793.629,117.216 793.962,118.883 794.5,120.5 Z"/></g>
<g><path style="opacity:1" fill="#5ec9e0" d="M 111.5,125.5 C 113.794,127.653 116.46,129.32 119.5,130.5C 121.333,132.496 121.833,134.829 121,137.5C 118.312,139.364 115.812,141.364 113.5,143.5C 111.629,143.859 110.129,144.859 109,146.5C 107.763,150.06 107.263,153.727 107.5,157.5C 103.684,150.439 105.351,144.772 112.5,140.5C 121.473,137.564 121.807,133.731 113.5,129C 111.257,127.864 108.924,127.03 106.5,126.5C 102.289,124.37 97.9556,122.704 93.5,121.5C 89.1113,119.808 84.778,117.808 80.5,115.5C 76.9468,113.96 75.7801,111.293 77,107.5C 78.0774,110.913 80.2441,113.413 83.5,115C 92.8182,118.605 102.152,122.105 111.5,125.5 Z"/></g>
<g><path style="opacity:1" fill="#62cae1" d="M 77.5,117.5 C 78.4056,119.914 80.0722,120.747 82.5,120C 80.5743,119.578 79.5743,118.411 79.5,116.5C 79.8333,116.5 80.1667,116.5 80.5,116.5C 83.0925,118.715 86.0925,120.381 89.5,121.5C 88.624,122.251 87.624,122.751 86.5,123C 87.9007,123.41 89.234,123.91 90.5,124.5C 96.9573,125.915 102.291,129.082 106.5,134C 103.005,136.687 99.5051,139.521 96,142.5C 94.9307,147.755 94.0974,153.089 93.5,158.5C 92.8165,158.137 92.1499,157.804 91.5,157.5C 91.5401,152.807 91.8734,148.141 92.5,143.5C 94.7091,138.974 98.3758,136.307 103.5,135.5C 103.719,134.325 103.386,133.325 102.5,132.5C 94.9432,128.764 87.2765,125.431 79.5,122.5C 79.0269,121.094 78.0269,120.427 76.5,120.5C 71.1637,116.808 69.497,111.808 71.5,105.5C 72.5,104.833 73.5,104.167 74.5,103.5C 74.8333,103.833 75.1667,104.167 75.5,104.5C 71.236,109.523 71.9026,113.856 77.5,117.5 Z"/></g>
<g><path style="opacity:1" fill="#a6dce9" d="M 79.5,116.5 C 79.5743,118.411 80.5743,119.578 82.5,120C 80.0722,120.747 78.4056,119.914 77.5,117.5C 78.1667,117.167 78.8333,116.833 79.5,116.5 Z"/></g>
<g><path style="opacity:1" fill="#c0e4ec" d="M 115.5,121.5 C 121.585,121.392 127.918,121.392 134.5,121.5C 128.266,122.807 121.932,122.807 115.5,121.5 Z"/></g>
<g><path style="opacity:1" fill="#68cce1" d="M 158.5,98.5 C 159.797,100.371 160.797,102.371 161.5,104.5C 161.666,109.511 161.499,114.511 161,119.5C 160.073,130.38 154.906,138.38 145.5,143.5C 145.158,142.662 144.492,142.328 143.5,142.5C 152.831,136.85 157.831,128.516 158.5,117.5C 158.5,111.167 158.5,104.833 158.5,98.5 Z"/></g>
<g><path style="opacity:1" fill="#58c7df" d="M 181.5,73.5 C 182.966,74.347 183.8,75.6803 184,77.5C 184.667,83.8333 184.667,90.1667 184,96.5C 181.964,99.6019 180.964,102.935 181,106.5C 183.857,100.934 186.523,95.2669 189,89.5C 189.414,89.0426 189.914,88.7093 190.5,88.5C 191.474,90.7427 191.808,93.076 191.5,95.5C 189.777,97.78 189.111,100.447 189.5,103.5C 191.833,103.5 194.167,103.5 196.5,103.5C 196.141,105.371 195.141,106.871 193.5,108C 188.876,110.466 184.876,113.633 181.5,117.5C 173.273,134.892 160.273,147.392 142.5,155C 137.226,159.389 135.892,164.889 138.5,171.5C 129.985,170.991 122.818,167.658 117,161.5C 115.872,159.655 115.372,157.655 115.5,155.5C 116.791,155.737 117.791,155.404 118.5,154.5C 126.358,152.144 131.858,147.144 135,139.5C 135.85,134.717 137.017,130.05 138.5,125.5C 139.11,124.609 139.443,123.609 139.5,122.5C 140.15,122.196 140.817,121.863 141.5,121.5C 142.489,125.107 142.823,128.774 142.5,132.5C 142.74,135.579 142.407,138.579 141.5,141.5C 141.957,142.298 142.624,142.631 143.5,142.5C 144.492,142.328 145.158,142.662 145.5,143.5C 143.598,144.368 141.765,145.368 140,146.5C 139.235,146.43 138.735,146.097 138.5,145.5C 138.765,140.531 139.765,135.698 141.5,131C 141.167,130.5 140.833,130 140.5,129.5C 138.832,134.175 137.165,138.841 135.5,143.5C 131.364,150.306 125.698,155.306 118.5,158.5C 122.662,164.317 128.329,167.65 135.5,168.5C 135.146,164.363 135.646,160.363 137,156.5C 145.585,151.125 154.085,145.625 162.5,140C 169.184,133.467 174.517,125.967 178.5,117.5C 181.709,113.127 185.709,109.627 190.5,107C 188.324,106.837 186.491,106.004 185,104.5C 183.333,107.167 181.667,109.833 180,112.5C 178.429,114.923 176.263,116.256 173.5,116.5C 176.059,109.663 178.725,102.83 181.5,96C 181.333,95.5 181.167,95 181,94.5C 180.612,95.428 179.945,96.0946 179,96.5C 176.777,93.5315 175.11,90.1982 174,86.5C 173.481,87.5156 172.647,88.1822 171.5,88.5C 169.272,87.7814 167.439,86.448 166,84.5C 168.154,88.5677 170.154,92.901 172,97.5C 172.796,106.463 171.462,115.129 168,123.5C 166.732,125.717 165.232,127.717 163.5,129.5C 162.513,126.232 162.18,122.898 162.5,119.5C 163.5,116.167 164.5,112.833 165.5,109.5C 165.334,113.514 165.501,117.514 166,121.5C 166.41,120.099 166.91,118.766 167.5,117.5C 168.94,113.594 169.606,109.427 169.5,105C 169.497,102.31 169.164,99.8097 168.5,97.5C 166.754,90.6798 163.421,84.6798 158.5,79.5C 159.365,78.4173 160.365,78.2506 161.5,79C 164.853,80.6768 167.853,82.8434 170.5,85.5C 170.648,81.7955 170.648,78.1288 170.5,74.5C 173.266,76.2593 175.266,78.5927 176.5,81.5C 177.093,84.8004 177.76,88.1337 178.5,91.5C 179.808,87.6853 179.808,84.0187 178.5,80.5C 178.5,79.1667 178.5,77.8333 178.5,76.5C 182.474,79.3905 183.474,78.3905 181.5,73.5 Z"/></g>
<g><path style="opacity:1" fill="#c7e5ed" d="M 178.5,80.5 C 179.808,84.0187 179.808,87.6853 178.5,91.5C 177.76,88.1337 177.093,84.8004 176.5,81.5C 177.492,81.6716 178.158,81.3382 178.5,80.5 Z"/></g>
<g><path style="opacity:1" fill="#1fb6d8" d="M 841.5,116.5 C 849.393,121.404 857.726,125.571 866.5,129C 874.802,141.362 872.802,151.529 860.5,159.5C 852.833,160.833 845.167,160.833 837.5,159.5C 832.98,157.656 829.313,154.656 826.5,150.5C 828.5,147.833 830.833,145.5 833.5,143.5C 835.297,145.449 837.297,147.116 839.5,148.5C 840.347,149.966 841.68,150.8 843.5,151C 846.696,151.805 849.696,151.638 852.5,150.5C 858.947,149.622 861.447,145.955 860,139.5C 858.833,138.333 857.667,137.167 856.5,136C 851.713,134.517 847.046,132.85 842.5,131C 839.894,130.208 837.894,128.708 836.5,126.5C 837.5,126.5 838.5,126.5 839.5,126.5C 839.481,124.94 839.148,123.44 838.5,122C 839.093,120.118 840.427,119.118 842.5,119C 841.748,118.329 841.414,117.496 841.5,116.5 Z"/></g>
<g><path style="opacity:1" fill="#b3e0ea" d="M 49.5,119.5 C 52.106,120.85 52.106,122.35 49.5,124C 50.1667,124.333 50.8333,124.667 51.5,125C 50.1772,125.816 49.5106,126.983 49.5,128.5C 48.8333,128.5 48.5,128.833 48.5,129.5C 47.6618,129.158 47.3284,128.492 47.5,127.5C 48.1667,124.833 48.8333,122.167 49.5,119.5 Z"/></g>
<g><path style="opacity:1" fill="#64cae1" d="M 76.5,121.5 C 73.6627,123.402 70.3293,124.069 66.5,123.5C 69.3373,121.598 72.6707,120.931 76.5,121.5 Z"/></g>
<g><path style="opacity:1" fill="#e1ecf0" d="M 79.5,122.5 C 87.2765,125.431 94.9432,128.764 102.5,132.5C 103.386,133.325 103.719,134.325 103.5,135.5C 98.3758,136.307 94.7091,138.974 92.5,143.5C 91.8333,143.5 91.1667,143.5 90.5,143.5C 87.5,143.5 84.5,143.5 81.5,143.5C 81.5,144.5 81.5,145.5 81.5,146.5C 84.5,146.5 87.5,146.5 90.5,146.5C 91.5498,146.905 91.5498,147.571 90.5,148.5C 88.604,149.466 86.604,149.799 84.5,149.5C 84.8432,151.483 84.1765,152.817 82.5,153.5C 73.8297,149.172 68.8297,142.172 67.5,132.5C 67.5,131.5 67.5,130.5 67.5,129.5C 69.4147,129.784 71.0813,129.451 72.5,128.5C 73.4013,129.29 74.0679,130.29 74.5,131.5C 74.1704,135.496 75.5037,139.162 78.5,142.5C 79.2508,141.624 79.7508,140.624 80,139.5C 80.3333,139.833 80.6667,140.167 81,140.5C 81.2502,136.574 81.7502,132.741 82.5,129C 81.6293,127.636 80.6293,126.47 79.5,125.5C 78.9094,124.849 78.2427,124.182 77.5,123.5C 77.9569,122.702 78.6236,122.369 79.5,122.5 Z"/></g>
<g><path style="opacity:1" fill="#abdeea" d="M 80.5,115.5 C 84.778,117.808 89.1113,119.808 93.5,121.5C 92.5,121.5 91.5,121.5 90.5,121.5C 90.5,122.5 90.5,123.5 90.5,124.5C 89.234,123.91 87.9007,123.41 86.5,123C 87.624,122.751 88.624,122.251 89.5,121.5C 86.0925,120.381 83.0925,118.715 80.5,116.5C 80.5,116.167 80.5,115.833 80.5,115.5 Z"/></g>
<g><path style="opacity:1" fill="#79d1e3" d="M 56.5,119.5 C 56.9069,122.223 57.2402,125.057 57.5,128C 55.8707,128.585 54.3707,129.419 53,130.5C 51.9889,129.944 51.1556,129.278 50.5,128.5C 51.5659,127.308 52.3992,127.641 53,129.5C 53.5,128.333 54.3333,127.5 55.5,127C 53.3153,124.322 53.6486,121.822 56.5,119.5 Z"/></g>
<g><path style="opacity:1" fill="#c5e5ec" d="M 740.5,122.5 C 742.48,134.455 743.146,146.788 742.5,159.5C 741.833,147.833 741.167,136.167 740.5,124.5C 740.5,123.833 740.5,123.167 740.5,122.5 Z"/></g>
<g><path style="opacity:1" fill="#74d0e3" d="M 743.5,159.5 C 743.167,159.5 742.833,159.5 742.5,159.5C 743.146,146.788 742.48,134.455 740.5,122.5C 740.811,121.522 741.478,120.855 742.5,120.5C 743.499,133.483 743.832,146.483 743.5,159.5 Z"/></g>
<g><path style="opacity:1" fill="#9adae6" d="M 779.5,118.5 C 779.245,120.967 778.245,122.967 776.5,124.5C 776.755,122.033 777.755,120.033 779.5,118.5 Z"/></g>
<g><path style="opacity:1" fill="#72cde3" d="M 145.5,123.5 C 148.518,123.335 151.518,123.502 154.5,124C 153.056,125.064 151.389,125.564 149.5,125.5C 147.667,125.415 146.334,124.748 145.5,123.5 Z"/></g>
<g><path style="opacity:1" fill="#81d3e5" d="M 450.5,127.5 C 446.006,125.198 441.34,124.865 436.5,126.5C 440.366,124.241 444.533,123.907 449,125.5C 450.03,125.836 450.53,126.503 450.5,127.5 Z"/></g>
<g><path style="opacity:1" fill="#cae6ed" d="M 76.5,120.5 C 78.0269,120.427 79.0269,121.094 79.5,122.5C 78.6236,122.369 77.9569,122.702 77.5,123.5C 78.2427,124.182 78.9094,124.849 79.5,125.5C 77.3944,125.679 75.7277,126.679 74.5,128.5C 75.6527,129.687 75.6527,130.687 74.5,131.5C 74.0679,130.29 73.4013,129.29 72.5,128.5C 71.0813,129.451 69.4147,129.784 67.5,129.5C 67.5,130.5 67.5,131.5 67.5,132.5C 66.5115,129.919 65.5115,127.252 64.5,124.5C 65.4916,124.672 66.1583,124.338 66.5,123.5C 70.3293,124.069 73.6627,123.402 76.5,121.5C 76.5,121.167 76.5,120.833 76.5,120.5 Z"/></g>
<g><path style="opacity:1" fill="#9bdae6" d="M 308.5,126.5 C 305.5,126.5 302.5,126.5 299.5,126.5C 300.777,125.102 302.443,124.436 304.5,124.5C 306.355,124.34 307.688,125.007 308.5,126.5 Z"/></g>
<g><path style="opacity:1" fill="#8cd4e6" d="M 342.5,124.5 C 344.099,124.232 345.432,124.566 346.5,125.5C 343.303,125.405 340.303,126.072 337.5,127.5C 338.486,125.592 340.152,124.592 342.5,124.5 Z"/></g>
<g><path style="opacity:1" fill="#9cd9e9" d="M 663.5,126.5 C 660.167,126.5 656.833,126.5 653.5,126.5C 656.833,123.833 660.167,123.833 663.5,126.5 Z"/></g>
<g><path style="opacity:1" fill="#3dc0dc" d="M 56.5,119.5 C 53.6486,121.822 53.3153,124.322 55.5,127C 54.3333,127.5 53.5,128.333 53,129.5C 52.3992,127.641 51.5659,127.308 50.5,128.5C 50.1667,128.5 49.8333,128.5 49.5,128.5C 49.5106,126.983 50.1772,125.816 51.5,125C 50.8333,124.667 50.1667,124.333 49.5,124C 52.106,122.35 52.106,120.85 49.5,119.5C 51.7818,115.524 54.1151,115.524 56.5,119.5 Z"/></g>
<g><path style="opacity:1" fill="#46c1dc" d="M 115.5,121.5 C 121.932,122.807 128.266,122.807 134.5,121.5C 137.313,124.4 136.647,126.4 132.5,127.5C 127.833,127.5 123.167,127.5 118.5,127.5C 114.819,126.778 113.819,124.778 115.5,121.5 Z"/></g>
<g><path style="opacity:1" fill="#8bd6e6" d="M 118.5,124.5 C 123.544,124.173 128.544,124.506 133.5,125.5C 131,125.833 128.5,126.167 126,126.5C 123.071,126.475 120.571,125.809 118.5,124.5 Z"/></g>
<g><path style="opacity:1" fill="#e7eef1" d="M 346.5,125.5 C 349.986,126.472 352.819,128.472 355,131.5C 356.195,137.57 355.362,143.236 352.5,148.5C 344.579,153.565 338.246,152.232 333.5,144.5C 332.274,140.178 332.274,135.845 333.5,131.5C 333.957,129.227 335.29,127.894 337.5,127.5C 340.303,126.072 343.303,125.405 346.5,125.5 Z"/></g>
<g><path style="opacity:1" fill="#e6eef1" d="M 450.5,127.5 C 452.262,128.262 453.262,129.596 453.5,131.5C 453.5,131.833 453.5,132.167 453.5,132.5C 446.8,132.83 440.134,132.497 433.5,131.5C 434.63,130.378 435.297,129.044 435.5,127.5C 436.167,127.5 436.5,127.167 436.5,126.5C 441.34,124.865 446.006,125.198 450.5,127.5 Z"/></g>
<g><path style="opacity:1" fill="#70cee3" d="M 610.5,126.5 C 611.495,137.321 611.828,148.321 611.5,159.5C 614.5,159.5 617.5,159.5 620.5,159.5C 620.172,148.321 620.505,137.321 621.5,126.5C 621.5,137.833 621.5,149.167 621.5,160.5C 617.833,160.5 614.167,160.5 610.5,160.5C 610.5,149.167 610.5,137.833 610.5,126.5 Z"/></g>
<g><path style="opacity:1" fill="#57c6e0" d="M 72.5,128.5 C 70.8008,128.66 69.1341,128.494 67.5,128C 69.5847,125.861 71.2513,126.028 72.5,128.5 Z"/></g>
<g><path style="opacity:1" fill="#b2e0ea" d="M 789.5,121.5 C 789.241,124.272 788.241,126.605 786.5,128.5C 786.759,125.728 787.759,123.395 789.5,121.5 Z"/></g>
<g><path style="opacity:1" fill="#cde7ed" d="M 115.5,121.5 C 113.819,124.778 114.819,126.778 118.5,127.5C 122.5,128.167 126.5,128.833 130.5,129.5C 130.5,130.167 130.5,130.833 130.5,131.5C 126.972,129.325 123.305,128.992 119.5,130.5C 116.46,129.32 113.794,127.653 111.5,125.5C 112.833,124.167 114.167,122.833 115.5,121.5 Z"/></g>
<g><path style="opacity:1" fill="#a3dce8" d="M 118.5,127.5 C 123.167,127.5 127.833,127.5 132.5,127.5C 133.209,128.404 134.209,128.737 135.5,128.5C 135.737,129.791 135.404,130.791 134.5,131.5C 133.817,129.824 132.483,129.157 130.5,129.5C 126.5,128.833 122.5,128.167 118.5,127.5 Z"/></g>
<g><path style="opacity:1" fill="#aedfea" d="M 140.5,120.5 C 141.5,120.5 142.5,120.5 143.5,120.5C 143.817,124.702 143.483,128.702 142.5,132.5C 142.823,128.774 142.489,125.107 141.5,121.5C 140.817,121.863 140.15,122.196 139.5,122.5C 139.328,121.508 139.662,120.842 140.5,120.5 Z"/></g>
<g><path style="opacity:1" fill="#60cae1" d="M 130.5,129.5 C 132.483,129.157 133.817,129.824 134.5,131.5C 133.167,131.5 131.833,131.5 130.5,131.5C 130.5,130.833 130.5,130.167 130.5,129.5 Z"/></g>
<g><path style="opacity:1" fill="#32bcd6" d="M 404.5,123.5 C 403.85,125.435 403.517,127.435 403.5,129.5C 405.591,129.318 407.591,129.652 409.5,130.5C 410.265,129.388 411.265,128.721 412.5,128.5C 411.89,129.391 411.557,130.391 411.5,131.5C 409.755,133.033 408.755,135.033 408.5,137.5C 408.068,138.71 407.401,139.71 406.5,140.5C 406.421,139.07 406.754,137.736 407.5,136.5C 405.083,135.928 402.916,134.928 401,133.5C 400.617,134.056 400.117,134.389 399.5,134.5C 400.727,131.434 401.727,128.267 402.5,125C 402.836,123.97 403.503,123.47 404.5,123.5 Z"/></g>
<g><path style="opacity:1" fill="#c7e6ed" d="M 64.5,122.5 C 63.1765,121.15 62.1765,121.317 61.5,123C 60.6058,126.776 60.2725,130.61 60.5,134.5C 59.3222,129.979 59.3222,125.312 60.5,120.5C 62.4832,120.157 63.8166,120.824 64.5,122.5 Z"/></g>
<g><path style="opacity:1" fill="#91d7e7" d="M 146.5,128.5 C 148.604,128.201 150.604,128.534 152.5,129.5C 151.307,131.384 149.641,131.884 147.5,131C 146.748,130.329 146.414,129.496 146.5,128.5 Z"/></g>
<g><path style="opacity:1" fill="#7ad0e3" d="M 509.5,124.5 C 510.117,124.611 510.617,124.944 511,125.5C 511.495,127.473 511.662,129.473 511.5,131.5C 510.593,129.343 509.927,127.01 509.5,124.5 Z"/></g>
<g><path style="opacity:1" fill="#b4e0ea" d="M 555.5,125.5 C 555.088,127.887 554.088,129.887 552.5,131.5C 552.621,128.895 553.621,126.895 555.5,125.5 Z"/></g>
<g><path style="opacity:1" fill="#42c1dd" d="M 93.5,132.5 C 91.4508,132.706 91.1175,133.539 92.5,135C 90.7412,135.798 89.0745,135.631 87.5,134.5C 87.7093,133.914 88.0426,133.414 88.5,133C 87.5842,132.722 86.9175,132.222 86.5,131.5C 89.3843,127.344 91.7176,127.678 93.5,132.5 Z"/></g>
<g><path style="opacity:1" fill="#bfe4eb" d="M 678.5,128.5 C 679.828,133.456 680.495,138.789 680.5,144.5C 680.333,149.833 680.167,155.167 680,160.5C 676.066,161.821 672.233,161.821 668.5,160.5C 672.042,160.813 675.375,160.479 678.5,159.5C 678.5,149.167 678.5,138.833 678.5,128.5 Z"/></g>
<g><path style="opacity:1" fill="#c0e4ec" d="M 435.5,127.5 C 435.297,129.044 434.63,130.378 433.5,131.5C 440.134,132.497 446.8,132.83 453.5,132.5C 450.183,133.165 446.683,133.499 443,133.5C 439.098,133.488 435.598,132.821 432.5,131.5C 432.738,129.596 433.738,128.262 435.5,127.5 Z"/></g>
<g><path style="opacity:1" fill="#6ccee2" d="M 432.5,131.5 C 435.598,132.821 439.098,133.488 443,133.5C 446.683,133.499 450.183,133.165 453.5,132.5C 453.5,132.167 453.5,131.833 453.5,131.5C 454.404,132.209 454.737,133.209 454.5,134.5C 446.833,134.5 439.167,134.5 431.5,134.5C 431.263,133.209 431.596,132.209 432.5,131.5 Z"/></g>
<g><path style="opacity:1" fill="#aedfea" d="M 565.5,127.5 C 565.357,130.385 564.357,132.718 562.5,134.5C 562.759,131.728 563.759,129.395 565.5,127.5 Z"/></g>
<g><path style="opacity:1" fill="#97d8e6" d="M 785.5,131.5 C 785.204,133.403 784.537,135.07 783.5,136.5C 783.12,134.302 783.787,132.635 785.5,131.5 Z"/></g>
<g><path style="opacity:1" fill="#69cce1" d="M 112.5,136.5 C 113.573,135.749 113.74,134.749 113,133.5C 111.188,132.023 109.355,130.69 107.5,129.5C 110.708,129.174 113.541,130.507 116,133.5C 116.711,135.367 116.211,136.867 114.5,138C 113.184,138.528 112.517,138.028 112.5,136.5 Z"/></g>
<g><path style="opacity:1" fill="#78d1e3" d="M 130.5,132.5 C 131.5,132.5 132.5,132.5 133.5,132.5C 133.5,133.5 133.5,134.5 133.5,135.5C 130.833,135.5 128.167,135.5 125.5,135.5C 123.952,135.179 123.285,134.179 123.5,132.5C 125.833,132.5 128.167,132.5 130.5,132.5 Z"/></g>
<g><path style="opacity:1" fill="#e3edf0" d="M 130.5,131.5 C 130.5,131.833 130.5,132.167 130.5,132.5C 128.167,132.5 125.833,132.5 123.5,132.5C 123.285,134.179 123.952,135.179 125.5,135.5C 125.232,137.099 125.566,138.432 126.5,139.5C 124.167,140.167 121.833,140.833 119.5,141.5C 119.5,142.167 119.5,142.833 119.5,143.5C 117.5,144.833 115.5,144.833 113.5,143.5C 115.812,141.364 118.312,139.364 121,137.5C 121.833,134.829 121.333,132.496 119.5,130.5C 123.305,128.992 126.972,129.325 130.5,131.5 Z"/></g>
<g><path style="opacity:1" fill="#6dcee1" d="M 668.5,131.5 C 669.494,140.652 669.827,149.985 669.5,159.5C 672.5,159.5 675.5,159.5 678.5,159.5C 675.375,160.479 672.042,160.813 668.5,160.5C 668.5,150.833 668.5,141.167 668.5,131.5 Z"/></g>
<g><path style="opacity:1" fill="#7ad1e3" d="M 86.5,131.5 C 86.9175,132.222 87.5842,132.722 88.5,133C 88.0426,133.414 87.7093,133.914 87.5,134.5C 89.0745,135.631 90.7412,135.798 92.5,135C 91.1175,133.539 91.4508,132.706 93.5,132.5C 92.8014,138.476 90.1347,139.643 85.5,136C 85.8714,134.397 86.2048,132.897 86.5,131.5 Z"/></g>
<g><path style="opacity:1" fill="#78cfe3" d="M 323.5,128.5 C 322.212,134.82 322.212,141.153 323.5,147.5C 321.105,144.88 320.105,141.713 320.5,138C 320.667,136.167 320.833,134.333 321,132.5C 321.2,130.68 322.034,129.347 323.5,128.5 Z"/></g>
<g><path style="opacity:1" fill="#9ad9e8" d="M 333.5,131.5 C 332.274,135.845 332.274,140.178 333.5,144.5C 332.003,142.71 331.336,140.544 331.5,138C 331.336,135.456 332.003,133.29 333.5,131.5 Z"/></g>
<g><path style="opacity:1" fill="#b0e0ea" d="M 411.5,131.5 C 411.245,133.967 410.245,135.967 408.5,137.5C 408.755,135.033 409.755,133.033 411.5,131.5 Z"/></g>
<g><path style="opacity:1" fill="#4ec3df" d="M 79.5,125.5 C 80.6293,126.47 81.6293,127.636 82.5,129C 81.7502,132.741 81.2502,136.574 81,140.5C 80.6667,140.167 80.3333,139.833 80,139.5C 79.7508,140.624 79.2508,141.624 78.5,142.5C 75.5037,139.162 74.1704,135.496 74.5,131.5C 75.6527,130.687 75.6527,129.687 74.5,128.5C 75.7277,126.679 77.3944,125.679 79.5,125.5 Z"/></g>
<g><path style="opacity:1" fill="#5fcbe0" d="M 296.5,129.5 C 295.548,139.782 295.214,150.115 295.5,160.5C 291.958,160.813 288.625,160.479 285.5,159.5C 288.5,159.5 291.5,159.5 294.5,159.5C 294.334,149.828 294.5,140.161 295,130.5C 295.383,129.944 295.883,129.611 296.5,129.5 Z"/></g>
<g><path style="opacity:1" fill="#80d3e4" d="M 423.5,128.5 C 421.758,133.308 421.091,138.308 421.5,143.5C 420.355,139.689 420.188,135.689 421,131.5C 421.236,129.881 422.069,128.881 423.5,128.5 Z"/></g>
<g><path style="opacity:1" fill="#9edbe8" d="M 512.5,133.5 C 513.966,134.347 514.8,135.68 515,137.5C 515.383,136.944 515.883,136.611 516.5,136.5C 516.585,137.995 515.919,138.995 514.5,139.5C 513.523,137.589 512.857,135.589 512.5,133.5 Z"/></g>
<g><path style="opacity:1" fill="#c0e4ec" d="M 783.5,136.5 C 789.167,137.833 794.833,137.833 800.5,136.5C 801.043,136.56 801.376,136.893 801.5,137.5C 795.167,138.833 788.833,138.833 782.5,137.5C 782.624,136.893 782.957,136.56 783.5,136.5 Z"/></g>
<g><path style="opacity:1" fill="#bee3ec" d="M 138.5,145.5 C 137.732,144.737 137.232,143.737 137,142.5C 136.617,143.056 136.117,143.389 135.5,143.5C 137.165,138.841 138.832,134.175 140.5,129.5C 140.833,130 141.167,130.5 141.5,131C 139.765,135.698 138.765,140.531 138.5,145.5 Z"/></g>
<g><path style="opacity:1" fill="#73d0e3" d="M 702.5,121.5 C 701.505,134.323 701.171,147.323 701.5,160.5C 697.629,160.815 693.962,160.482 690.5,159.5C 693.833,159.5 697.167,159.5 700.5,159.5C 700.168,146.483 700.501,133.483 701.5,120.5C 702.107,120.624 702.44,120.957 702.5,121.5 Z"/></g>
<g><path style="opacity:1" fill="#bce2eb" d="M 106.5,126.5 C 108.924,127.03 111.257,127.864 113.5,129C 121.807,133.731 121.473,137.564 112.5,140.5C 111.314,139.039 111.314,137.705 112.5,136.5C 112.517,138.028 113.184,138.528 114.5,138C 116.211,136.867 116.711,135.367 116,133.5C 113.541,130.507 110.708,129.174 107.5,129.5C 106.596,128.791 106.263,127.791 106.5,126.5 Z"/></g>
<g><path style="opacity:1" fill="#47c2dc" d="M 463.5,129.5 C 464.822,133.566 464.822,137.733 463.5,142C 452.833,142.333 442.167,142.667 431.5,143C 432.999,145.328 434.666,147.495 436.5,149.5C 431.44,147.792 429.44,144.125 430.5,138.5C 441.354,140.357 452.354,141.023 463.5,140.5C 463.5,136.833 463.5,133.167 463.5,129.5 Z"/></g>
<g><path style="opacity:1" fill="#65cbe2" d="M 119.5,141.5 C 135.5,142.167 135.5,142.833 119.5,143.5C 119.5,142.833 119.5,142.167 119.5,141.5 Z"/></g>
<g><path style="opacity:1" fill="#67cde1" d="M 583.5,116.5 C 583.5,130.833 583.5,145.167 583.5,159.5C 586.5,159.5 589.5,159.5 592.5,159.5C 592.5,145.167 592.5,130.833 592.5,116.5C 593.496,130.99 593.829,145.657 593.5,160.5C 589.833,160.5 586.167,160.5 582.5,160.5C 582.171,145.657 582.504,130.99 583.5,116.5 Z"/></g>
<g><path style="opacity:1" fill="#19b8d7" d="M 583.5,116.5 C 586.5,116.5 589.5,116.5 592.5,116.5C 592.5,130.833 592.5,145.167 592.5,159.5C 589.5,159.5 586.5,159.5 583.5,159.5C 583.5,145.167 583.5,130.833 583.5,116.5 Z"/></g>
<g><path style="opacity:1" fill="#02b1d8" d="M 584.5,129.5 C 586.833,129.5 589.167,129.5 591.5,129.5C 591.687,138.861 591.354,148.195 590.5,157.5C 588.459,157.146 586.626,157.146 585,157.5C 584.5,148.173 584.334,138.839 584.5,129.5 Z"/></g>
<g><path style="opacity:1" fill="#6acce2" d="M 104.5,139.5 C 105.376,139.369 106.043,139.702 106.5,140.5C 103.698,143.376 101.532,146.71 100,150.5C 98.9591,145.732 100.459,142.066 104.5,139.5 Z"/></g>
<g><path style="opacity:1" fill="#cfe7ee" d="M 134.5,121.5 C 134.897,120.475 135.563,120.308 136.5,121C 137.099,122.622 137.766,124.122 138.5,125.5C 137.017,130.05 135.85,134.717 135,139.5C 131.858,147.144 126.358,152.144 118.5,154.5C 117.5,153.833 116.5,153.167 115.5,152.5C 120.833,151.833 120.833,151.167 115.5,150.5C 114.9,149.1 113.9,148.1 112.5,147.5C 111.5,147.5 110.5,147.5 109.5,147.5C 110.069,151.329 109.402,154.663 107.5,157.5C 107.263,153.727 107.763,150.06 109,146.5C 110.129,144.859 111.629,143.859 113.5,143.5C 115.5,144.833 117.5,144.833 119.5,143.5C 135.5,142.833 135.5,142.167 119.5,141.5C 121.833,140.833 124.167,140.167 126.5,139.5C 125.566,138.432 125.232,137.099 125.5,135.5C 128.167,135.5 130.833,135.5 133.5,135.5C 133.5,134.5 133.5,133.5 133.5,132.5C 132.5,132.5 131.5,132.5 130.5,132.5C 130.5,132.167 130.5,131.833 130.5,131.5C 131.833,131.5 133.167,131.5 134.5,131.5C 135.404,130.791 135.737,129.791 135.5,128.5C 134.209,128.737 133.209,128.404 132.5,127.5C 136.647,126.4 137.313,124.4 134.5,121.5 Z"/></g>
<g><path style="opacity:1" fill="#66cbe2" d="M 126.5,139.5 C 127.152,138.275 128.319,137.608 130,137.5C 131.167,137.833 132.333,138.167 133.5,138.5C 131.257,139.474 128.924,139.808 126.5,139.5 Z"/></g>
<g><path style="opacity:1" fill="#53c5df" d="M 36.5,93.5 C 35.7784,93.9175 35.2784,94.5842 35,95.5C 33.6812,104.851 34.6812,113.851 38,122.5C 38.4992,117.845 38.6658,113.179 38.5,108.5C 38.1493,102.178 40.1493,96.8449 44.5,92.5C 44.5928,99.7703 44.7595,107.104 45,114.5C 45.2715,119.076 46.1049,123.409 47.5,127.5C 47.3284,128.492 47.6618,129.158 48.5,129.5C 50.8467,134.689 54.5133,138.856 59.5,142C 60.448,142.483 61.448,142.649 62.5,142.5C 62.1977,139.627 61.531,136.961 60.5,134.5C 60.2725,130.61 60.6058,126.776 61.5,123C 62.1765,121.317 63.1765,121.15 64.5,122.5C 64.5,123.167 64.5,123.833 64.5,124.5C 65.5115,127.252 66.5115,129.919 67.5,132.5C 68.8297,142.172 73.8297,149.172 82.5,153.5C 83.5137,154.674 84.847,155.34 86.5,155.5C 88.2726,156.314 88.7726,157.648 88,159.5C 82.1613,166.669 74.6613,170.502 65.5,171C 65.2634,166.932 65.0967,162.766 65,158.5C 55.2025,152.358 45.7025,145.858 36.5,139C 30.2962,130.761 24.4628,122.261 19,113.5C 15.5,111.333 12,109.167 8.5,107C 7.66337,105.989 7.33003,104.822 7.5,103.5C 9.83333,103.5 12.1667,103.5 14.5,103.5C 13.7717,99.6904 13.1051,95.857 12.5,92C 12.8333,90.8333 13.1667,89.6667 13.5,88.5C 14.1067,88.6236 14.44,88.9569 14.5,89.5C 17.2998,95.8842 20.2998,102.217 23.5,108.5C 24.1217,109.627 24.955,110.627 26,111.5C 26.3418,109.381 27.1751,109.047 28.5,110.5C 30.108,117.443 28.608,118.11 24,112.5C 21.9376,110.099 20.2709,107.433 19,104.5C 17.5093,106.004 15.676,106.837 13.5,107C 21.4808,112.324 27.3142,119.491 31,128.5C 38.9722,139.904 49.4722,148.071 62.5,153C 64.3333,154.833 66.1667,156.667 68,158.5C 68.3876,161.849 68.2209,165.183 67.5,168.5C 72.6178,167.899 77.2845,166.066 81.5,163C 83.019,161.649 84.3523,160.149 85.5,158.5C 75.2704,153.937 68.6037,146.27 65.5,135.5C 65.4348,133.304 64.7681,131.304 63.5,129.5C 62.11,132.476 62.4433,135.143 64.5,137.5C 65.1587,140.455 65.4921,143.455 65.5,146.5C 58.2721,144.628 52.4388,140.628 48,134.5C 43.2781,125.135 41.2781,115.135 42,104.5C 40.9777,106.702 40.4777,109.035 40.5,111.5C 41.242,117.479 41.5753,123.479 41.5,129.5C 40.325,129.719 39.325,129.386 38.5,128.5C 35.1159,122.638 33.1159,116.305 32.5,109.5C 32.3921,104.13 32.7255,98.7968 33.5,93.5C 34.9462,91.2965 35.7796,88.9631 36,86.5C 33.8404,89.0806 31.6737,89.0806 29.5,86.5C 28.4847,89.8545 27.4847,93.1878 26.5,96.5C 25.209,96.7373 24.209,96.404 23.5,95.5C 23.4431,94.391 23.1098,93.391 22.5,92.5C 23.3382,92.1583 23.6716,91.4916 23.5,90.5C 24.8946,91.8146 25.8946,91.4812 26.5,89.5C 25.4429,82.2329 28.1095,77.2329 34.5,74.5C 33.9421,77.3443 33.2755,80.1776 32.5,83C 32.8333,83.8333 33.1667,84.6667 33.5,85.5C 35.3241,83.5107 37.3241,81.6774 39.5,80C 41.2588,79.2025 42.9255,79.3691 44.5,80.5C 40.9818,84.3424 38.3151,88.6758 36.5,93.5 Z"/></g>
<g><path style="opacity:1" fill="#a7dde9" d="M 65.5,135.5 C 64.6618,135.842 64.3284,136.508 64.5,137.5C 62.4433,135.143 62.11,132.476 63.5,129.5C 64.7681,131.304 65.4348,133.304 65.5,135.5 Z"/></g>
<g><path style="opacity:1" fill="#e3edf0" d="M 33.5,93.5 C 31.9942,96.356 31.3275,99.5226 31.5,103C 31.5039,105.361 31.8373,107.527 32.5,109.5C 33.1159,116.305 35.1159,122.638 38.5,128.5C 39.325,129.386 40.325,129.719 41.5,129.5C 41.5753,123.479 41.242,117.479 40.5,111.5C 40.4777,109.035 40.9777,106.702 42,104.5C 41.2781,115.135 43.2781,125.135 48,134.5C 52.4388,140.628 58.2721,144.628 65.5,146.5C 65.4921,143.455 65.1587,140.455 64.5,137.5C 64.3284,136.508 64.6618,135.842 65.5,135.5C 68.6037,146.27 75.2704,153.937 85.5,158.5C 84.3523,160.149 83.019,161.649 81.5,163C 77.2845,166.066 72.6178,167.899 67.5,168.5C 68.2209,165.183 68.3876,161.849 68,158.5C 66.1667,156.667 64.3333,154.833 62.5,153C 49.4722,148.071 38.9722,139.904 31,128.5C 27.3142,119.491 21.4808,112.324 13.5,107C 15.676,106.837 17.5093,106.004 19,104.5C 20.2709,107.433 21.9376,110.099 24,112.5C 28.608,118.11 30.108,117.443 28.5,110.5C 26.8003,105.914 24.8003,101.414 22.5,97C 22.5699,96.2352 22.9033,95.7352 23.5,95.5C 24.209,96.404 25.209,96.7373 26.5,96.5C 27.4847,93.1878 28.4847,89.8545 29.5,86.5C 31.6737,89.0806 33.8404,89.0806 36,86.5C 35.7796,88.9631 34.9462,91.2965 33.5,93.5 Z"/></g>
<g><path style="opacity:1" fill="#d0e8ee" d="M 36.5,93.5 C 35.5133,99.805 35.3466,106.138 36,112.5C 36.2004,110.68 37.0337,109.347 38.5,108.5C 38.6658,113.179 38.4992,117.845 38,122.5C 34.6812,113.851 33.6812,104.851 35,95.5C 35.2784,94.5842 35.7784,93.9175 36.5,93.5 Z"/></g>
<g><path style="opacity:1" fill="#8ed6e6" d="M 33.5,93.5 C 32.7255,98.7968 32.3921,104.13 32.5,109.5C 31.8373,107.527 31.5039,105.361 31.5,103C 31.3275,99.5226 31.9942,96.356 33.5,93.5 Z"/></g>
<g><path style="opacity:1" fill="#86d4e5" d="M 90.5,143.5 C 90.5,144.5 90.5,145.5 90.5,146.5C 87.5,146.5 84.5,146.5 81.5,146.5C 81.5,145.5 81.5,144.5 81.5,143.5C 84.5,143.5 87.5,143.5 90.5,143.5 Z"/></g>
<g><path style="opacity:1" fill="#76cee3" d="M 112.5,147.5 C 114.743,146.188 117.41,145.522 120.5,145.5C 123.167,145.833 125.833,146.167 128.5,146.5C 123.208,147.495 117.875,147.828 112.5,147.5 Z"/></g>
<g><path style="opacity:1" fill="#a8dcea" d="M 382.5,140.5 C 384.245,142.033 385.245,144.033 385.5,146.5C 383.755,144.967 382.755,142.967 382.5,140.5 Z"/></g>
<g><path style="opacity:1" fill="#78cfe3" d="M 505.5,144.5 C 507.379,145.895 508.379,147.895 508.5,150.5C 506.755,148.967 505.755,146.967 505.5,144.5 Z"/></g>
<g><path style="opacity:1" fill="#b5e0eb" d="M 436.5,149.5 C 441.491,150.725 446.491,150.725 451.5,149.5C 446.483,152.087 441.483,152.087 436.5,149.5 Z"/></g>
<g><path style="opacity:1" fill="#c0e4ec" d="M 839.5,148.5 C 843.743,149.681 848.076,150.348 852.5,150.5C 849.696,151.638 846.696,151.805 843.5,151C 841.68,150.8 840.347,149.966 839.5,148.5 Z"/></g>
<g><path style="opacity:1" fill="#70cee2" d="M 115.5,150.5 C 120.833,151.167 120.833,151.833 115.5,152.5C 114.167,151.833 114.167,151.167 115.5,150.5 Z"/></g>
<g><path style="opacity:1" fill="#11b2da" d="M 776.5,149.5 C 776.371,151.216 776.038,152.883 775.5,154.5C 775.204,156.403 774.537,158.07 773.5,159.5C 770.428,159.817 767.428,159.484 764.5,158.5C 765.295,155.856 765.962,153.189 766.5,150.5C 769.47,149.835 772.47,149.169 775.5,148.5C 776.107,148.624 776.44,148.957 776.5,149.5 Z"/></g>
<g><path style="opacity:1" fill="#c3e4ec" d="M 90.5,143.5 C 91.1667,143.5 91.8333,143.5 92.5,143.5C 91.8734,148.141 91.5401,152.807 91.5,157.5C 90.5655,156.432 90.2322,155.099 90.5,153.5C 88.8008,153.34 87.1341,153.506 85.5,154C 86.056,154.383 86.3893,154.883 86.5,155.5C 84.847,155.34 83.5137,154.674 82.5,153.5C 84.1765,152.817 84.8432,151.483 84.5,149.5C 86.604,149.799 88.604,149.466 90.5,148.5C 91.5498,147.571 91.5498,146.905 90.5,146.5C 90.5,145.5 90.5,144.5 90.5,143.5 Z"/></g>
<g><path style="opacity:1" fill="#60cae0" d="M 85.5,150.5 C 86.9778,150.238 88.3112,150.571 89.5,151.5C 88.8333,151.833 88.1667,152.167 87.5,152.5C 86.2867,152.253 85.62,151.586 85.5,150.5 Z"/></g>
<g><path style="opacity:1" fill="#45c2de" d="M 473.5,95.5 C 473.5,116.833 473.5,138.167 473.5,159.5C 476.167,159.5 478.833,159.5 481.5,159.5C 481.5,138.167 481.5,116.833 481.5,95.5C 482.497,116.66 482.831,137.993 482.5,159.5C 479.167,160.833 475.833,160.833 472.5,159.5C 472.169,137.993 472.503,116.66 473.5,95.5 Z"/></g>
<g><path style="opacity:1" fill="#02b2d7" d="M 473.5,95.5 C 476.167,95.5 478.833,95.5 481.5,95.5C 481.5,116.833 481.5,138.167 481.5,159.5C 478.833,159.5 476.167,159.5 473.5,159.5C 473.5,138.167 473.5,116.833 473.5,95.5 Z"/></g>
<g><path style="opacity:1" fill="#85d3e7" d="M 778.5,148.5 C 778.245,150.967 777.245,152.967 775.5,154.5C 776.038,152.883 776.371,151.216 776.5,149.5C 777.167,149.167 777.833,148.833 778.5,148.5 Z"/></g>
<g><path style="opacity:1" fill="#86d2e5" d="M 98.5,152.5 C 99.4959,152.414 100.329,152.748 101,153.5C 101.495,155.473 101.662,157.473 101.5,159.5C 100.5,159.5 99.5,159.5 98.5,159.5C 98.5,157.167 98.5,154.833 98.5,152.5 Z"/></g>
<g><path style="opacity:1" fill="#92d7e5" d="M 817.5,149.5 C 819.245,151.033 820.245,153.033 820.5,155.5C 818.755,153.967 817.755,151.967 817.5,149.5 Z"/></g>
<g><path style="opacity:1" fill="#96d9e5" d="M 400.5,155.5 C 400.573,157.027 399.906,158.027 398.5,158.5C 398.427,156.973 399.094,155.973 400.5,155.5 Z"/></g>
<g><path style="opacity:1" fill="#7ed2e5" d="M 555.5,156.5 C 555.461,157.583 555.127,158.583 554.5,159.5C 551.691,160.8 549.024,160.8 546.5,159.5C 550.104,159.951 553.104,158.951 555.5,156.5 Z"/></g>
<g><path style="opacity:1" fill="#65c9e5" d="M 766.5,150.5 C 765.962,153.189 765.295,155.856 764.5,158.5C 767.428,159.484 770.428,159.817 773.5,159.5C 769.981,160.808 766.315,160.808 762.5,159.5C 763.395,156.154 764.729,153.154 766.5,150.5 Z"/></g>
<g><path style="opacity:1" fill="#97d9e9" d="M 434.5,159.5 C 439.463,160.254 444.463,160.587 449.5,160.5C 447.696,161.162 445.696,161.495 443.5,161.5C 440.186,161.657 437.186,160.991 434.5,159.5 Z"/></g>
<g><path style="opacity:1" fill="#82d3e6" d="M 837.5,159.5 C 845.167,160.833 852.833,160.833 860.5,159.5C 856.797,161.055 852.797,161.722 848.5,161.5C 845.5,161.333 842.5,161.167 839.5,161C 838.584,160.722 837.918,160.222 837.5,159.5 Z"/></g>
<g><path style="opacity:1" fill="#8cd4e5" d="M 105.5,159.5 C 107.484,159.484 108.484,160.484 108.5,162.5C 108.547,164 107.881,165 106.5,165.5C 105.534,163.604 105.201,161.604 105.5,159.5 Z"/></g>
<g><path style="opacity:1" fill="#79cee2" d="M 99.5,162.5 C 100.586,162.62 101.253,163.287 101.5,164.5C 101.167,165.167 100.833,165.833 100.5,166.5C 99.5713,165.311 99.238,163.978 99.5,162.5 Z"/></g>
<g><path style="opacity:1" fill="#b3e0ea" d="M 91.5,164.5 C 90.5489,163.081 90.2155,161.415 90.5,159.5C 91.8333,159.5 93.1667,159.5 94.5,159.5C 94.5,164.5 94.5,169.5 94.5,174.5C 93.5,174.5 92.5,174.5 91.5,174.5C 91.5,171.167 91.5,167.833 91.5,164.5 Z"/></g>
<g><path style="opacity:1" fill="#61cae1" d="M 91.5,164.5 C 91.238,163.022 91.5713,161.689 92.5,160.5C 92.8333,161.167 93.1667,161.833 93.5,162.5C 93.2528,163.713 92.5862,164.38 91.5,164.5 Z"/></g>
<g><path style="opacity:1" fill="#90d5e4" d="M 99.5,168.5 C 101.048,168.821 101.715,169.821 101.5,171.5C 98.7524,171.598 98.0857,170.598 99.5,168.5 Z"/></g>
</svg>
